<svg width="16" height="16" viewBox="0 0 16 16" fill="none"
    xmlns="http://www.w3.org/2000/svg">
    <path d="M6.69934 12.0615C7.89128 12.0615 9.04912 11.6639 9.98947 10.9314L13.5371 14.4791C13.8021 14.735 14.2244 14.7277 14.4804 14.4627C14.73 14.2041 14.73 13.7943 14.4804 13.5358L10.9327 9.98818C12.7502 7.64863 12.327 4.27873 9.98741 2.46128C7.64787 0.643832 4.278 1.06705 2.46055 3.4066C0.6431 5.74615 1.06632 9.11605 3.40587 10.9335C4.34775 11.6652 5.50663 12.0621 6.69934 12.0615ZM3.84885 3.84753C5.42315 2.2732 7.97559 2.27318 9.54992 3.84747C11.1242 5.42177 11.1243 7.97422 9.54998 9.54854C7.97568 11.1229 5.42324 11.1229 3.84891 9.5486C3.84888 9.54857 3.84888 9.54857 3.84885 9.54854C2.27455 7.98572 2.26528 5.44258 3.8281 3.86828C3.83501 3.86134 3.84192 3.85444 3.84885 3.84753Z" fill="#737374"/>
</svg>
