<svg width="24" height="24" viewBox="0 0 24 24" fill="none" xmlns="http://www.w3.org/2000/svg">
<path fill-rule="evenodd" clip-rule="evenodd" d="M5 6C4.44772 6 4 6.44772 4 7V17C4 17.5523 4.44772 18 5 18H19C19.5523 18 20 17.5523 20 17V7C20 6.44772 19.5523 6 19 6H5ZM2 7C2 5.34315 3.34315 4 5 4H19C20.6569 4 22 5.34315 22 7V17C22 18.6569 20.6569 20 19 20H5C3.34315 20 2 18.6569 2 17V7Z" fill="#0D0D0E"/>
<path fill-rule="evenodd" clip-rule="evenodd" d="M2.16806 6.44528C2.47441 5.98576 3.09528 5.86158 3.55481 6.16793L12.0001 11.7981L20.4454 6.16793C20.9049 5.86158 21.5258 5.98576 21.8322 6.44528C22.1385 6.90481 22.0143 7.52568 21.5548 7.83203L12.5548 13.832C12.2189 14.056 11.7813 14.056 11.4454 13.832L2.44541 7.83203C1.98588 7.52568 1.8617 6.90481 2.16806 6.44528Z" fill="#0D0D0E"/>
</svg>
