<svg width="16" height="16" viewBox="0 0 16 16" fill="none"
    xmlns="http://www.w3.org/2000/svg">
    <path fill-rule="evenodd" clip-rule="evenodd" d="M7.99992 6.00033C7.26354 6.00033 6.66659 6.59728 6.66659 7.33366C6.66659 8.07004 7.26354 8.66699 7.99992 8.66699C8.7363 8.66699 9.33325 8.07004 9.33325 7.33366C9.33325 6.59728 8.7363 6.00033 7.99992 6.00033ZM5.33325 7.33366C5.33325 5.8609 6.52716 4.66699 7.99992 4.66699C9.47268 4.66699 10.6666 5.8609 10.6666 7.33366C10.6666 8.80642 9.47268 10.0003 7.99992 10.0003C6.52716 10.0003 5.33325 8.80642 5.33325 7.33366Z" fill="#0D0D0E"/>
    <path fill-rule="evenodd" clip-rule="evenodd" d="M8 2.66732C7.07703 2.66732 6.17479 2.94101 5.40737 3.45378C4.63994 3.96655 4.0418 4.69536 3.68859 5.54807C3.33537 6.40078 3.24294 7.33908 3.42299 8.24432C3.60303 9.14952 4.04743 9.98102 4.70002 10.6337C4.7 10.6336 4.70004 10.6337 4.70002 10.6337L7.52917 13.4621C7.65417 13.587 7.82364 13.6572 8.00034 13.6572C8.17703 13.6572 8.3465 13.587 8.4715 13.4621L11.2999 10.6337C11.2999 10.6337 11.2999 10.6337 11.2999 10.6337C11.9525 9.98108 12.397 9.14955 12.577 8.24432C12.7571 7.33908 12.6646 6.40078 12.3114 5.54807C11.9582 4.69536 11.3601 3.96655 10.5926 3.45378C9.82521 2.94101 8.92297 2.66732 8 2.66732ZM12.2428 11.5765C13.0818 10.7374 13.6532 9.66829 13.8847 8.50441C14.1162 7.34054 13.9974 6.13415 13.5432 5.03781C13.0891 3.94147 12.3201 3.00442 11.3334 2.34515C10.3467 1.68587 9.18668 1.33398 8 1.33398C6.81333 1.33398 5.6533 1.68587 4.66661 2.34515C3.67993 3.00442 2.91089 3.94147 2.45676 5.03781C2.00262 6.13415 1.88378 7.34054 2.11527 8.50441C2.34675 9.66829 2.91817 10.7374 3.75725 11.5765L6.58665 14.4052C6.96167 14.7799 7.47025 14.9905 8.00034 14.9905C8.53042 14.9905 9.03882 14.7801 9.41384 14.4054L12.2428 11.5765Z" fill="#0D0D0E"/>
</svg>
