<svg width="32" height="32" viewBox="0 0 32 32" fill="none"
    xmlns="http://www.w3.org/2000/svg">
    <path d="M8.54458 4.80364C8.50451 2.9851 7.20407 1.59999 5.09234 1.59999C2.98061 1.59999 1.60004 2.9851 1.60004 4.80364C1.60004 6.5845 2.93981 8.0095 5.01221 8.0095H5.05166C7.20407 8.0095 8.54458 6.5845 8.54458 4.80364Z" fill="#0D0D0E"/>
    <path d="M8.138 10.5411H1.96505V29.0882H8.138V10.5411Z" fill="#0D0D0E"/>
    <path d="M23.2927 10.1056C27.3547 10.1056 30.4 12.757 30.4 18.4539L30.3998 29.0883H24.2271V19.1655C24.2271 16.6732 23.3338 14.9724 21.0992 14.9724C19.3938 14.9724 18.378 16.119 17.9319 17.2264C17.7686 17.6232 17.7286 18.1762 17.7286 18.7305V29.0888H11.5549C11.5549 29.0888 11.6362 12.282 11.5549 10.5416H17.7286V13.1687C18.5479 11.9058 20.0152 10.1056 23.2927 10.1056Z" fill="#0D0D0E"/>
</svg>
