<svg width="32" height="32" viewBox="0 0 32 32" fill="none"
    xmlns="http://www.w3.org/2000/svg">
    <g clip-path="url(#clip0_1973_2997)">
        <path d="M15.9673 2.88204C20.2318 2.88204 20.7324 2.90105 22.418 2.97709C23.9768 3.04679 24.8196 3.30659 25.3835 3.52838C26.1312 3.81986 26.6635 4.16204 27.2211 4.71966C27.7788 5.27729 28.1273 5.80956 28.4124 6.55729C28.6279 7.12125 28.894 7.96402 28.9637 9.52283C29.0398 11.2084 29.0588 11.709 29.0588 15.9735C29.0588 20.2381 29.0398 20.7387 28.9637 22.4242C28.894 23.983 28.6342 24.8258 28.4124 25.3898C28.121 26.1375 27.7788 26.6698 27.2211 27.2274C26.6635 27.785 26.1312 28.1335 25.3835 28.4187C24.8196 28.6341 23.9768 28.9003 22.418 28.97C20.7324 29.046 20.2318 29.065 15.9673 29.065C11.7027 29.065 11.2021 29.046 9.5166 28.97C7.95778 28.9003 7.11501 28.6405 6.55105 28.4187C5.80333 28.1272 5.27105 27.785 4.71343 27.2274C4.1558 26.6698 3.80729 26.1375 3.52214 25.3898C3.3067 24.8258 3.04056 23.983 2.97085 22.4242C2.89481 20.7387 2.8758 20.2381 2.8758 15.9735C2.8758 11.709 2.89481 11.2084 2.97085 9.52283C3.04056 7.96402 3.30036 7.12125 3.52214 6.55729C3.81363 5.80956 4.1558 5.27729 4.71343 4.71966C5.27105 4.16204 5.80333 3.81352 6.55105 3.52838C7.11501 3.31293 7.95778 3.04679 9.5166 2.97709C11.2021 2.89471 11.7027 2.88204 15.9673 2.88204ZM15.9673 0.00520706C11.633 0.00520706 11.0881 0.024217 9.38353 0.100257C7.68531 0.176296 6.52571 0.448772 5.51184 0.841643C4.45996 1.24719 3.57283 1.79847 2.68571 2.6856C1.79858 3.57273 1.25363 4.4662 0.841746 5.51174C0.448874 6.5256 0.176399 7.68521 0.10036 9.38976C0.02432 11.088 0.00531006 11.6329 0.00531006 15.9672C0.00531006 20.3014 0.02432 20.8464 0.10036 22.551C0.176399 24.2492 0.448874 25.4088 0.841746 26.429C1.24729 27.4809 1.79858 28.368 2.68571 29.2551C3.57283 30.1422 4.4663 30.6872 5.51184 31.0991C6.52571 31.4919 7.68531 31.7644 9.38986 31.8405C11.0944 31.9165 11.633 31.9355 15.9736 31.9355C20.3142 31.9355 20.8528 31.9165 22.5574 31.8405C24.2556 31.7644 25.4152 31.4919 26.4354 31.0991C27.4873 30.6935 28.3744 30.1422 29.2615 29.2551C30.1487 28.368 30.6936 27.4745 31.1055 26.429C31.4984 25.4151 31.7709 24.2555 31.8469 22.551C31.9229 20.8464 31.9419 20.3078 31.9419 15.9672C31.9419 11.6266 31.9229 11.088 31.8469 9.38342C31.7709 7.68521 31.4984 6.5256 31.1055 5.50541C30.7 4.45352 30.1487 3.5664 29.2615 2.67927C28.3744 1.79214 27.4809 1.24719 26.4354 0.835306C25.4215 0.442435 24.2619 0.16996 22.5574 0.0939199C20.8465 0.024217 20.3015 0.00520706 15.9673 0.00520706Z" fill="#0D0D0E"/>
        <path d="M15.9673 7.76771C11.4429 7.76771 7.76766 11.4366 7.76766 15.9673C7.76766 20.498 11.4429 24.1669 15.9673 24.1669C20.4916 24.1669 24.1669 20.4917 24.1669 15.9673C24.1669 11.443 20.4916 7.76771 15.9673 7.76771ZM15.9673 21.2901C13.0271 21.2901 10.6445 18.9075 10.6445 15.9673C10.6445 13.0271 13.0271 10.6445 15.9673 10.6445C18.9075 10.6445 21.29 13.0271 21.29 15.9673C21.29 18.9075 18.9075 21.2901 15.9673 21.2901Z" fill="#0D0D0E"/>
        <path d="M24.4901 9.35832C25.5469 9.35832 26.4037 8.50154 26.4037 7.44465C26.4037 6.38776 25.5469 5.53099 24.4901 5.53099C23.4332 5.53099 22.5764 6.38776 22.5764 7.44465C22.5764 8.50154 23.4332 9.35832 24.4901 9.35832Z" fill="#0D0D0E"/>
    </g>
    <defs>
        <clipPath id="clip0_1973_2997">
            <rect width="32" height="32" fill="white"/>
        </clipPath>
    </defs>
</svg>
